<svg width="28" height="28" viewBox="0 0 28 28" fill="none" xmlns="http://www.w3.org/2000/svg">
<path d="M11.6673 25.6667C16.822 25.6667 21.0007 21.488 21.0007 16.3333C21.0007 11.1787 16.822 7 11.6673 7C6.51266 7 2.33398 11.1787 2.33398 16.3333C2.33398 21.488 6.51266 25.6667 11.6673 25.6667Z" fill="#3DD9EB"/>
<path d="M18.4234 18.0406C22.7562 18.0406 26.2686 14.5282 26.2686 10.1953C26.2686 5.86254 22.7562 2.3501 18.4234 2.3501C14.0906 2.3501 10.5781 5.86254 10.5781 10.1953C10.5781 14.5282 14.0906 18.0406 18.4234 18.0406Z" fill="#6C19FF"/>
<path d="M2.375 25.6666H11.6144L6.372 20.7368L2.375 25.6666Z" fill="#3DD9EB"/>
<path d="M11.666 7C11.5266 7 11.3913 7.01458 11.253 7.021C10.822 7.99225 10.5781 9.065 10.5781 10.1961C10.5781 14.5291 14.0904 18.0413 18.4234 18.0413C19.289 18.0413 20.1191 17.8955 20.8979 17.6371C20.958 17.2095 20.9994 16.7767 20.9994 16.3333C20.9994 11.1784 16.821 7 11.666 7Z" fill="#00B3D7"/>
<path d="M26.2352 2.3501H18.4688L22.8752 6.4941L26.2352 2.3501Z" fill="#6C19FF"/>
</svg>
