<svg width="28" height="28" viewBox="0 0 28 28" fill="none" xmlns="http://www.w3.org/2000/svg">
<path d="M6.41602 10.5C4.48343 10.5 2.91602 12.0668 2.91602 14C2.91602 15.9326 4.48343 17.5 6.41602 17.5C8.34918 17.5 9.91602 15.9326 9.91602 14C9.91602 12.0674 8.34918 10.5 6.41602 10.5Z" fill="#3DD9EB"/>
<path d="M21.584 2.91663C19.6514 2.91663 18.084 4.48404 18.084 6.41663C18.084 8.34921 19.6514 9.91663 21.584 9.91663C23.5172 9.91663 25.084 8.34921 25.084 6.41663C25.084 4.48404 23.5172 2.91663 21.584 2.91663Z" fill="#3DD9EB"/>
<path d="M21.584 18.0834C19.6514 18.0834 18.084 19.6502 18.084 21.5834C18.084 23.516 19.6514 25.0834 21.584 25.0834C23.5172 25.0834 25.084 23.516 25.084 21.5834C25.084 19.6508 23.5172 18.0834 21.584 18.0834Z" fill="#3DD9EB"/>
<path d="M18.5607 8.18286L14.6255 12.8332H9.7168C9.8463 13.1984 9.9163 13.5909 9.9163 13.9999C9.9163 14.4088 9.8463 14.8014 9.71738 15.1665H14.6255L18.5607 19.8174C18.962 19.132 19.5903 18.5954 20.3416 18.3101L16.6946 13.9999L20.341 9.68961C19.5897 9.40494 18.962 8.86769 18.5607 8.18286Z" fill="#6C19FF"/>
<path d="M9.71652 12.8334H6.41602V15.1667H9.7171C9.84601 14.8021 9.91601 14.409 9.91601 14C9.91601 13.5911 9.84602 13.1985 9.71652 12.8334Z" fill="#00B3D7"/>
<path d="M20.6926 5.66296L18.5605 8.18296C18.9619 8.86838 19.5895 9.40505 20.3415 9.6903L22.4735 7.17088L20.6926 5.66296Z" fill="#00B3D7"/>
<path d="M20.3415 18.3103C19.5901 18.5956 18.9619 19.1322 18.5605 19.8176L20.6926 22.3371L22.4735 20.8297L20.3415 18.3103Z" fill="#00B3D7"/>
</svg>
