<svg width="28" height="28" viewBox="0 0 28 28" fill="none" xmlns="http://www.w3.org/2000/svg">
<path d="M5.83333 3.5H3.5V24.5H5.83333V3.5Z" fill="#3DD9EB"/>
<path d="M24.5 22.1666H3.5V24.5H24.5V22.1666Z" fill="#3DD9EB"/>
<path d="M5.83333 22.1666H3.5V24.5H5.83333V22.1666Z" fill="#00B3D7"/>
<path d="M24.4993 18.0834H22.166V24.5H24.4993V18.0834Z" fill="#3DD9EB"/>
<path d="M24.4993 22.1666H22.166V24.5H24.4993V22.1666Z" fill="#00B3D7"/>
<path d="M8.16602 19.8333V15.1666C8.16602 10.3343 12.0837 6.41663 16.916 6.41663H20.416V9.91663H16.916C14.0163 9.91663 11.666 12.2669 11.666 15.1666V19.8333H8.16602Z" fill="#6C19FF"/>
<path d="M24.4993 8.16667L18.666 12.8333V3.5L24.4993 8.16667Z" fill="#6C19FF"/>
<path d="M20.3933 6.41663H18.666V9.91663H20.3933V6.41663Z" fill="#2100C4"/>
</svg>
