<svg width="112" height="23" viewBox="0 0 112 23" fill="none" xmlns="http://www.w3.org/2000/svg">
<path d="M48.7031 11.3523V18.7047H50.0506H51.3982V11.3523V4H50.0506H48.7031V11.3523Z" fill="black"/>
<path d="M90.3669 4.15C86.6438 4.96025 83.9885 8.61141 84.4377 12.2726C84.6673 14.0932 85.3161 15.4036 86.6238 16.7039C87.8715 17.9343 88.9595 18.5245 90.6265 18.8647C92.4533 19.2348 94.7291 18.7546 96.2466 17.6843L96.5256 17.4842L97.0746 17.9744C98.0826 18.8447 97.9633 18.8347 98.582 18.1544C99.5698 17.0641 99.5597 17.1641 98.8015 16.4739L98.1423 15.8838L98.5719 15.1235C100.268 12.1426 99.7801 8.64142 97.3142 6.20065C96.2264 5.1103 95.0182 4.4601 93.5411 4.15C92.7131 3.96994 91.1754 3.96994 90.3669 4.15ZM93.3116 6.69081C95.3083 7.311 96.8148 9.39166 96.8148 11.5223C96.8148 12.1326 96.5752 13.0928 96.286 13.6631L96.0666 14.0831L95.0779 13.2228L94.0901 12.3626L93.6513 12.8527C93.4016 13.1329 93.072 13.513 92.9123 13.723L92.6231 14.0831L93.5815 14.9134L94.5289 15.7436L94.08 15.9737C93.4714 16.2839 92.5928 16.5039 91.974 16.5039C89.4087 16.5039 87.1328 14.1032 87.1328 11.4123C87.1328 10.8221 87.3624 9.90183 87.6819 9.25162C87.9812 8.64142 88.7898 7.70113 89.3987 7.28099C90.4967 6.53076 92.0438 6.30068 93.3116 6.69081Z" fill="black"/>
<path d="M25.7451 5.45047V6.70087H28.0409H30.3368V12.7028V18.7047H31.7342H33.1316V12.7028V6.70087H35.4274H37.7232V5.45047V4.20007H31.7342H25.7451V5.45047Z" fill="black"/>
<path d="M101.606 11.4523V18.7047H106.647H111.688V17.5043V16.304H107.995H104.302V10.252V4.20007H102.954H101.606V11.4523Z" fill="black"/>
<path d="M77.85 6.30064V7.80112H77.0514H76.2529V8.90148V10.0019H77.0514H77.84L77.87 13.4229L77.8999 16.854L78.1694 17.3541C78.7483 18.4545 79.6168 18.9547 80.9443 18.9547C81.7129 18.9547 81.8627 18.9247 82.4716 18.6246C82.8509 18.4345 83.1803 18.2245 83.2102 18.1444C83.2402 18.0644 83.1603 17.7643 83.0405 17.4742C82.9108 17.1941 82.751 16.814 82.6812 16.634L82.5515 16.3238L82.1721 16.5139C81.7329 16.744 81.3337 16.7539 80.9544 16.5639C80.4353 16.2838 80.4054 16.1038 80.3654 12.9228L80.3355 10.0019H81.5832H82.8409V8.90148V7.80112H81.5932H80.3454V6.30064V4.80017H79.0977H77.85V6.30064Z" fill="black"/>
<path d="M41.6662 7.57099C41.0474 7.62101 40.1191 7.79107 39.5701 7.97112C39.1409 8.10116 37.953 8.58131 37.8332 8.67134C37.7833 8.70135 38.6317 10.6019 38.6917 10.6019C38.7116 10.6019 38.8913 10.5219 39.101 10.4119C40.6981 9.60163 42.6545 9.58166 43.5528 10.3819C43.8423 10.642 44.2116 11.5023 44.2116 11.9424C44.2116 12.2925 44.1916 12.3225 43.992 12.2625C42.5646 11.8623 40.9176 11.7523 39.9195 11.9924C38.6917 12.2925 37.6436 13.0928 37.1545 14.0931C36.9149 14.5732 36.875 14.7733 36.875 15.5035C36.875 16.2138 36.9149 16.4439 37.1345 16.9039C37.6536 17.9843 38.6418 18.6845 39.9793 18.9146C41.2969 19.1447 42.5945 18.8546 43.6527 18.0943L44.2116 17.6942V18.1943V18.7046H45.5093H46.8068V15.0433C46.8068 11.1521 46.767 10.692 46.2878 9.76171C46.0083 9.21151 45.14 8.37125 44.551 8.07115C43.8024 7.70104 42.6145 7.49096 41.6662 7.57099ZM42.8641 13.803C43.2534 13.863 43.7125 13.953 43.8922 14.013C44.2116 14.113 44.2116 14.1231 44.2116 14.7633C44.2116 15.5035 44.0718 15.8436 43.5728 16.2737C42.4548 17.264 40.3386 17.2241 39.6499 16.2037C39.2507 15.6236 39.3704 14.7733 39.9195 14.3232C40.6182 13.7529 41.4466 13.6029 42.8641 13.803Z" fill="black"/>
<path d="M57.7367 7.60119C56.5089 7.74123 55.4009 8.2714 54.5425 9.14168C53.7839 9.90194 53.3447 10.6621 53.0951 11.6625C52.2466 14.9935 54.1033 18.1346 57.3573 18.8648C59.0842 19.2449 61.4299 18.7047 62.6876 17.6243L63.0969 17.2743L62.3183 16.494L61.5497 15.7138L61.2902 15.8938C60.8809 16.1839 60.0724 16.564 59.5634 16.7041C58.9544 16.8641 57.7367 16.7941 57.2775 16.564C56.459 16.174 55.7503 15.2837 55.5307 14.3733L55.4708 14.1032H59.6732H63.8754L63.8355 13.7232C63.8056 13.5231 63.7556 13.0429 63.7257 12.6728C63.566 10.7722 62.4181 8.83158 61.0206 8.12136C60.1423 7.67121 58.8746 7.47115 57.7367 7.60119ZM59.3936 9.8519C60.2421 10.152 60.831 10.8222 61.1404 11.8525L61.2703 12.3027H58.3854C56.7884 12.3027 55.4908 12.2827 55.4908 12.2627C55.4908 12.0826 55.8401 11.3124 56.0797 10.9723C56.7884 9.93194 58.2358 9.44178 59.3936 9.8519Z" fill="black"/>
<path d="M70.4433 7.61116C69.7145 7.7212 68.916 8.09132 68.3271 8.61148L67.8679 9.02161V8.41141V7.80122H66.5204H65.1729V13.253V18.7047H66.5204H67.8579L67.8879 15.1335C67.9179 11.6424 67.9279 11.5424 68.1375 11.1323C68.5567 10.3621 69.4351 9.87188 70.4133 9.87188C71.3116 9.86185 71.9704 10.262 72.3897 11.0522C72.5993 11.4424 72.6093 11.5824 72.6392 15.0736L72.6691 18.7047H73.9569H75.2544V14.8735C75.2544 12.0125 75.2146 10.9222 75.1147 10.5521C74.5657 8.45143 72.6892 7.28105 70.4433 7.61116Z" fill="black"/>
<path d="M8.94369 0.147646C6.87745 0.557772 4.98092 1.53809 3.45369 2.98855C2.45552 3.93885 1.83664 4.75911 1.24773 5.89947C0.339381 7.66003 0 9.08045 0 11.0911C0 13.1018 0.339381 14.5222 1.24773 16.2828C1.83664 17.4231 2.45552 18.2434 3.45369 19.1937C5.5399 21.1843 8.09523 22.1947 11.0299 22.1947C12.9863 22.1947 14.4536 21.8546 16.0707 21.0443C16.8792 20.6342 17.9672 19.934 17.9672 19.8139C17.9672 19.7739 17.3583 19.1337 16.6197 18.3934L15.2721 17.043L14.6732 17.3731C13.5553 17.9933 12.7468 18.2134 11.4191 18.2634C10.411 18.3034 10.0816 18.2834 9.37292 18.1033C6.10886 17.2831 3.8929 14.4521 3.8929 11.0911C3.8929 7.06984 7.06711 3.88883 11.0798 3.88883C16.3602 3.88883 19.8039 9.31054 17.6179 14.1721L17.3383 14.8023L18.6759 16.1528C19.4046 16.893 20.0534 17.4931 20.1133 17.4931C20.3329 17.4931 21.2312 15.8126 21.6206 14.6623C21.9998 13.5519 22.1596 12.4716 22.1596 11.0911C22.1596 9.08045 21.8202 7.66003 20.9119 5.89947C20.3229 4.75911 19.7041 3.93885 18.7058 2.98855C17.1587 1.50808 15.2622 0.537771 13.146 0.137642C12.1678 -0.0524177 9.89198 -0.0424154 8.94369 0.147646Z" fill="black"/>
<circle cx="11" cy="11" r="5" fill="black"/>
</svg>
